<mxfile host="65bd71144e">
    <diagram id="rfjSN9cdk0lPBWMgBJ06" name="Page-1">
        <mxGraphModel dx="1844" dy="890" grid="1" gridSize="10" guides="1" tooltips="1" connect="1" arrows="1" fold="1" page="1" pageScale="1" pageWidth="850" pageHeight="1100" math="0" shadow="0">
            <root>
                <mxCell id="0"/>
                <mxCell id="1" parent="0"/>
                <mxCell id="zSOSA6TjUo3DJ6Rty31Y-2" value="" style="rounded=0;whiteSpace=wrap;html=1;" parent="1" vertex="1">
                    <mxGeometry x="210" y="90" width="480" height="270" as="geometry"/>
                </mxCell>
                <mxCell id="zSOSA6TjUo3DJ6Rty31Y-4" value="Cashier" style="shape=umlActor;verticalLabelPosition=bottom;verticalAlign=top;html=1;outlineConnect=0;" parent="1" vertex="1">
                    <mxGeometry x="110" y="200" width="30" height="60" as="geometry"/>
                </mxCell>
                <mxCell id="5" style="edgeStyle=none;html=1;exitX=0.5;exitY=0.5;exitDx=0;exitDy=0;exitPerimeter=0;" edge="1" parent="1" source="zSOSA6TjUo3DJ6Rty31Y-6" target="2">
                    <mxGeometry relative="1" as="geometry"/>
                </mxCell>
                <mxCell id="zSOSA6TjUo3DJ6Rty31Y-6" value="Barista" style="shape=umlActor;verticalLabelPosition=bottom;verticalAlign=top;html=1;outlineConnect=0;" parent="1" vertex="1">
                    <mxGeometry x="750" y="160" width="30" height="60" as="geometry"/>
                </mxCell>
                <mxCell id="zSOSA6TjUo3DJ6Rty31Y-13" value="Check Order Status" style="ellipse;whiteSpace=wrap;html=1;" parent="1" vertex="1">
                    <mxGeometry x="490" y="260" width="140" height="70" as="geometry"/>
                </mxCell>
                <mxCell id="zSOSA6TjUo3DJ6Rty31Y-14" value="Mark Order Fulfilled" style="ellipse;whiteSpace=wrap;html=1;" parent="1" vertex="1">
                    <mxGeometry x="250" y="225" width="140" height="70" as="geometry"/>
                </mxCell>
                <mxCell id="zSOSA6TjUo3DJ6Rty31Y-20" value="Dan's Frappuccino Hell System - order management" style="text;html=1;strokeColor=none;fillColor=none;align=center;verticalAlign=middle;whiteSpace=wrap;rounded=0;" parent="1" vertex="1">
                    <mxGeometry x="360" y="110" width="130" height="30" as="geometry"/>
                </mxCell>
                <mxCell id="zSOSA6TjUo3DJ6Rty31Y-26" value="" style="endArrow=classic;html=1;rounded=0;" parent="1" source="zSOSA6TjUo3DJ6Rty31Y-4" target="zSOSA6TjUo3DJ6Rty31Y-14" edge="1">
                    <mxGeometry width="50" height="50" relative="1" as="geometry">
                        <mxPoint x="60" y="810" as="sourcePoint"/>
                        <mxPoint x="110" y="760" as="targetPoint"/>
                    </mxGeometry>
                </mxCell>
                <mxCell id="zSOSA6TjUo3DJ6Rty31Y-38" value="&amp;lt;&amp;lt;extends&amp;gt;&amp;gt;" style="endArrow=open;endSize=12;dashed=1;html=1;rounded=0;" parent="1" source="zSOSA6TjUo3DJ6Rty31Y-13" target="zSOSA6TjUo3DJ6Rty31Y-14" edge="1">
                    <mxGeometry width="160" relative="1" as="geometry">
                        <mxPoint x="495.93116872789756" y="651.0450024108744" as="sourcePoint"/>
                        <mxPoint x="484.9969524269768" y="620.0030138310292" as="targetPoint"/>
                        <Array as="points"/>
                    </mxGeometry>
                </mxCell>
                <mxCell id="2" value="Mark Order Built" style="ellipse;whiteSpace=wrap;html=1;" vertex="1" parent="1">
                    <mxGeometry x="540" y="155" width="140" height="70" as="geometry"/>
                </mxCell>
                <mxCell id="3" value="&amp;lt;&amp;lt;extends&amp;gt;&amp;gt;" style="endArrow=open;endSize=12;dashed=1;html=1;rounded=0;" edge="1" parent="1" source="zSOSA6TjUo3DJ6Rty31Y-13" target="2">
                    <mxGeometry width="160" relative="1" as="geometry">
                        <mxPoint x="518.2305232940407" y="281.4419797012208" as="sourcePoint"/>
                        <mxPoint x="391.69398457497346" y="223.59942774074875" as="targetPoint"/>
                        <Array as="points"/>
                    </mxGeometry>
                </mxCell>
                <mxCell id="6" value="Log in" style="ellipse;whiteSpace=wrap;html=1;" vertex="1" parent="1">
                    <mxGeometry x="240" y="130" width="140" height="70" as="geometry"/>
                </mxCell>
                <mxCell id="7" value="&amp;lt;&amp;lt;includes&amp;gt;&amp;gt;" style="endArrow=open;endSize=12;dashed=1;html=1;rounded=0;" edge="1" parent="1" source="zSOSA6TjUo3DJ6Rty31Y-14" target="6">
                    <mxGeometry width="160" relative="1" as="geometry">
                        <mxPoint x="502.7825190006183" y="295.23001729660155" as="sourcePoint"/>
                        <mxPoint x="397.199999999998" y="279.7999999999997" as="targetPoint"/>
                        <Array as="points"/>
                    </mxGeometry>
                </mxCell>
                <mxCell id="8" value="&amp;lt;&amp;lt;includes&amp;gt;&amp;gt;" style="endArrow=open;endSize=12;dashed=1;html=1;rounded=0;" edge="1" parent="1" source="2" target="6">
                    <mxGeometry width="160" relative="1" as="geometry">
                        <mxPoint x="385.03999999999996" y="214.98000000000002" as="sourcePoint"/>
                        <mxPoint x="361.3049516849969" y="238.69504831500308" as="targetPoint"/>
                        <Array as="points"/>
                    </mxGeometry>
                </mxCell>
            </root>
        </mxGraphModel>
    </diagram>
</mxfile>